<svg width="0" height="0" class="hidden">
  <symbol xmlns="http://www.w3.org/2000/svg" fill-rule="evenodd" clip-rule="evenodd" stroke-linejoin="round" stroke-miterlimit="2" viewBox="0 0 512 512" id="linkedin">
    <path d="M256 0c141.29 0 256 114.71 256 256 0 141.29-114.71 256-256 256C114.71 512 0 397.29 0 256 0 114.71 114.71 0 256 0zm-80.037 399.871V199.95h-66.464v199.921h66.464zm239.62 0V285.225c0-61.409-32.787-89.976-76.509-89.976-35.255 0-51.047 19.389-59.889 33.007V199.95h-66.447c.881 18.757 0 199.921 0 199.921h66.446v-111.65c0-5.976.43-11.95 2.191-16.221 4.795-11.935 15.737-24.299 34.095-24.299 24.034 0 33.663 18.34 33.663 45.204v106.966h66.45zM143.18 103.55c-22.74 0-37.597 14.95-37.597 34.545 0 19.182 14.405 34.544 36.717 34.544h.429c23.175 0 37.6-15.362 37.6-34.544-.43-19.595-14.424-34.545-37.149-34.545z"></path>
  </symbol>
  <symbol xmlns="http://www.w3.org/2000/svg" fill-rule="evenodd" clip-rule="evenodd" stroke-linejoin="round" stroke-miterlimit="2" viewBox="0 0 512 512" id="facebook">
    <path d="M255.022 511.998l.229.001h-.079l-.15-.001zm1.806.001h-.079l.229-.001-.15.001zm-2.588-.005l.247.001h-.142l-.105-.001zm3.415.001h-.142l.247-.001-.105.001zm-4.169-.007l.165.001-.132-.001h-.033zm4.995 0l-.132.001.165-.001h-.033zm.826-.009l-.058.001.223-.003-.165.002zm-6.779-.002l.223.003-.058-.001-.165-.002zm7.604-.01l-.135.002.275-.004-.14.002zm-8.404-.002l.275.004-.135-.002-.14-.002zm9.228-.012l-.182.003.254-.005-.072.002zm-9.984-.002l.254.005-.182-.003-.072-.002zm-.937-.019l.225.005-.04-.001-.185-.004zm11.745.004l-.04.001.225-.005-.185.004zm-12.567-.025l.309.008-.125-.003-.184-.005zm13.39.005l-.125.003.309-.008-.184.005zm.823-.022l-.201.006.316-.009-.115.003zm-14.967-.003l.316.009-.201-.006-.115-.003zm-.72-.022l.225.007-.212-.007-.194-.006.181.006zm16.509 0l-.212.007.225-.007.181-.006-.194.006zm.821-.027l-.112.004.345-.012-.233.008zm-18.371-.008l.345.012-.112-.004-.233-.008zm-.749-.028l.362.013-.201-.007-.161-.006zm19.941.006l-.201.007.362-.013-.161.006zm-20.676-.036l.354.015-.277-.011-.077-.004zm21.495.004l-.277.011.354-.015-.077.004zm-22.525-.049l.38.017-.093-.003-.287-.014zm23.345.014l-.093.003.38-.017-.287.014zm-24.084-.048l.394.018-.186-.008-.208-.01zm24.902.01l-.186.008.394-.018-.208.01zm-25.63-.047l.397.02-.279-.013-.118-.007zm26.448.007l-.279.013.397-.02-.118.007zm.818-.043l-.362.019.321-.017.378-.021-.337.019zm-27.925.002l.321.017-.362-.019-.337-.019.378.021zm28.741-.048l-.16.009.406-.023-.246.014zm-29.844-.014l.406.023-.16-.009-.246-.014zm-.722-.043l.405.024-.253-.014-.152-.01zm31.382.01l-.253.014.405-.024-.152.01zm-32.071-.053l.365.023-.34-.021-.342-.022.317.02zm32.887.002l-.34.021.365-.023.317-.02-.342.022zm.814-.053l-.122.008.387-.026-.265.018zm-34.755-.018l.387.026-.122-.008-.265-.018zm-.721-.05l.38.027-.208-.014-.172-.013zm36.29.013l-.208.014.38-.027-.172.013zm-37.009-.064l.349.025-.271-.019-.078-.006zm37.822.006l-.271.019.349-.025-.078.006zm-38.789-.079l.306.023-.074-.005-.232-.018zm39.602.018l-.074.005.306-.023-.232.018zm.811-.063l-.146.011.311-.025-.165.014zm-41.157-.014l.311.025-.146-.011-.165-.014zm-.725-.059l.264.022-.186-.015-.078-.007zm42.694.007l-.186.015.264-.022-.078.007zm-43.492-.074l.079.007-.013-.001-.066-.006zm44.302.006l-.013.001.079-.007-.066.006zm.81-.071l-.072.006.181-.016-.109.01zm-45.965-.01l.181.016-.072-.006-.109-.01zm-.75-.068l.135.013-.084-.008-.051-.005zm47.523.005l-.084.008.135-.013-.051.005zM216 508.887C93.681 489.661 0 383.684 0 256 0 114.71 114.71 0 256 0c141.29 0 256 114.71 256 256 0 127.684-93.681 233.661-216 252.887V330h59.65L367 256h-71v-48.021c0-20.245 9.918-39.979 41.719-39.979H370v-63s-29.296-5-57.305-5C254.219 100 216 135.44 216 199.6V256h-65v74h65v178.887z"></path>
  </symbol>
  <symbol version="1.0" xmlns="http://www.w3.org/2000/svg" viewBox="0 0 32 32" id="github">
    <path clip-rule="evenodd" d="M16.003 0C7.17 0 .008 7.162.008 15.997c0 7.067 4.582 13.063 10.94 15.179.8.146 1.052-.328 1.052-.752 0-.38.008-1.442 0-2.777-4.449.967-5.371-2.107-5.371-2.107-.727-1.848-1.775-2.34-1.775-2.34-1.452-.992.109-.973.109-.973 1.605.113 2.451 1.649 2.451 1.649 1.427 2.443 3.743 1.737 4.654 1.329.146-1.034.56-1.739 1.017-2.139-3.552-.404-7.286-1.776-7.286-7.906 0-1.747.623-3.174 1.646-4.292-.165-.404-.715-2.031.157-4.234 0 0 1.343-.43 4.398 1.641a15.31 15.31 0 014.005-.538c1.359.006 2.727.183 4.005.538 3.055-2.07 4.396-1.641 4.396-1.641.872 2.203.323 3.83.159 4.234 1.023 1.118 1.644 2.545 1.644 4.292 0 6.146-3.74 7.498-7.304 7.893C19.479 23.548 20 24.508 20 26v4.428c0 .428.258.901 1.07.746C27.422 29.055 32 23.062 32 15.997 32 7.162 24.838 0 16.003 0z" fill-rule="evenodd"></path>
  </symbol>
  <symbol xmlns="http://www.w3.org/2000/svg" viewBox="0 0 24 24" id="gmail">
    <title></title>
    <path d="M24 4.5v15c0 .85-.65 1.5-1.5 1.5H21V7.387l-9 6.463-9-6.463V21H1.5C.649 21 0 20.35 0 19.5v-15c0-.425.162-.8.431-1.068A1.485 1.485 0 011.5 3H2l10 7.25L22 3h.5c.425 0 .8.162 1.069.432.27.268.431.643.431 1.068z"></path>
  </symbol>
</svg>